FFmpeg version SVN-r25716, Copyright (c) 2000-2010 the FFmpeg developers  built on Nov 10 2010 12:23:18 with gcc 4.1.2 20080704 (Red Hat 4.1.2-48)  configuration: --enable-libmp3lame --enable-shared --disable-mmx --arch=x86_64  libavutil     50.33. 0 / 50.33. 0  libavcore      0.12. 1 /  0.12. 1  libavcodec    52.94. 4 / 52.94. 4  libavformat   52.84. 0 / 52.84. 0  libavdevice   52. 2. 2 / 52. 2. 2  libavfilter    1.59. 0 /  1.59. 0  libswscale     0.12. 0 /  0.12. 0Seems stream 0 codec frame rate differs from container frame rate: 1000.00 (1000/1) -> 12.05 (1000/83)Input #0, mov,mp4,m4a,3gp,3g2,mj2, from '/RAID10/data/converted_video_files/25635.mov':  Metadata:    major_brand     : qt      minor_version   : 537199360    compatible_brands: qt    Duration: 00:00:24.40, start: 0.000000, bitrate: 1817 kb/s    Stream #0.0(eng): Video: mpeg4, yuv420p, 770x256 [PAR 1:1 DAR 385:128], 1816 kb/s, 12.05 fps, 12.05 tbr, 1k tbn, 1k tbc[buffer @ 0x10142e00] w:770 h:256 pixfmt:yuv420pOutput #0, flv, to '/RAID10/data/converted_video_files/25635.flv':  Metadata:    encoder         : Lavf52.84.0    Stream #0.0(eng): Video: flv, yuv420p, 770x256 [PAR 1:1 DAR 385:128], q=2-31, 600 kb/s, 1k tbn, 24 tbcStream mapping:  Stream #0.0 -> #0.0Press [q] to stop encodingframe=   72 fps=  0 q=11.4 size=     398kB time=5.92 bitrate= 550.5kbits/s    frame=  141 fps=138 q=7.3 size=     720kB time=11.67 bitrate= 505.4kbits/s    frame=  203 fps=132 q=10.3 size=    1074kB time=16.79 bitrate= 523.9kbits/s    frame=  268 fps=132 q=5.7 size=    1412kB time=22.21 bitrate= 520.9kbits/s    frame=  294 fps=131 q=5.7 Lsize=    1543kB time=24.38 bitrate= 518.4kbits/s    video:1538kB audio:0kB global headers:0kB muxing overhead 0.312059%